<svg width="86" height="80" viewBox="0 0 86 80" fill="none" xmlns="http://www.w3.org/2000/svg">
<path fill-rule="evenodd" clip-rule="evenodd" d="M51.648 76.0075L54.0337 72.6775L54.0337 8.19416L51.9678 4.99057L41.2225 0.123901L37.4102 0.721341L1.15545 33.5713L2.14577e-06 36.1775L0 43.4775L1.15545 46.0836L37.4102 78.9336L40.9027 79.6575L51.648 76.0075ZM50.5169 8.19416L39.7716 3.32749L31.5168 10.807V68.848L39.7716 76.3275L50.5169 72.6775L50.5169 8.19416Z" fill="currentColor"/>
<path fill-rule="evenodd" clip-rule="evenodd" d="M62.5447 74.4403L60.4874 71.2406L60.4874 6.96565L62.8659 3.63816L73.5 -4.68641e-05L77.0091 0.729736L84.7965 7.83651L85.9426 10.4342L85.9426 68.9848L84.7965 71.5825L77.0091 78.6893L73.1788 79.2913L62.5447 74.4403ZM74.6384 76.0916L64.0043 71.2407L64.0043 6.96565L74.6384 3.32744L82.4258 10.4342L82.4258 68.9848L74.6384 76.0916Z" fill="currentColor"/>
</svg>
