<svg width="24" height="24" viewBox="0 0 24 24" fill="none" xmlns="http://www.w3.org/2000/svg">
<path d="M4.5 8.92811L5.1066 9.75291C5.1066 9.75291 6.36645 8.72879 6.7864 9.25116C7.20636 9.77353 8.79951 15.9114 9.33278 17.0524C9.79939 18.049 11.0859 19.3687 12.4924 18.427C13.8989 17.4854 18.585 13.3751 19.425 8.49509C20.2649 3.61504 13.7923 4.64604 13.1057 8.88687C14.8188 7.82838 15.732 9.31989 14.8588 11.0039C13.9856 12.6878 13.1857 13.7944 12.7657 13.7944C12.3458 13.7944 11.9991 12.6878 11.5392 10.6877C11.0792 8.68755 11.0459 4.96908 8.98615 5.38836C7.05304 5.8145 4.5 8.92811 4.5 8.92811Z" fill="currentColor"/>
</svg>
