<svg width="24" height="24" viewBox="0 0 24 24" fill="none" xmlns="http://www.w3.org/2000/svg">
<path d="M18.0083 4H5.92531C4.86307 4 4 4.86667 4 5.93333V18.1333C4 19.1333 4.86307 20 5.92531 20H18.0747C19.1369 20 20 19.1333 20 18.0667V5.93333C19.9336 4.86667 19.0705 4 18.0083 4ZM16.5477 11C16.4813 11 16.3485 11 16.2822 11C15.3527 11 14.4232 10.5333 13.8921 9.73333V14.1333C13.8921 15.9333 12.4315 17.4 10.639 17.4C8.84647 17.4 7.38589 15.9333 7.38589 14.1333C7.38589 12.3333 8.84647 10.8667 10.639 10.8667C10.7054 10.8667 10.7718 10.8667 10.8382 10.8667V12.4667C10.7718 12.4667 10.7054 12.4667 10.639 12.4667C9.70954 12.4667 8.97925 13.2 8.97925 14.1333C8.97925 15.0667 9.70954 15.8 10.639 15.8C11.5685 15.8 12.3651 15.0667 12.3651 14.1333V6.66667H13.8921C14.0249 8.06667 15.1535 9.13333 16.4813 9.2L16.5477 11Z" fill="currentColor"/>
</svg>
