<svg width="24" height="24" viewBox="0 0 24 24" fill="none" xmlns="http://www.w3.org/2000/svg">
<path d="M19.7091 8.1412C19.5221 7.48238 18.961 6.91767 18.3065 6.72944C16.9974 6.35297 12.0416 6.35297 12.0416 6.35297C12.0416 6.35297 6.99221 6.35297 5.77662 6.72944C5.02857 6.91767 4.56104 7.38826 4.37403 8.1412C4 9.36473 4 12 4 12C4 12 4 14.6353 4.37403 15.8588C4.56104 16.5177 5.12208 17.0824 5.77662 17.2706C6.99221 17.6471 12.0416 17.6471 12.0416 17.6471C12.0416 17.6471 17.0909 17.6471 18.3065 17.2706C18.961 17.0824 19.5221 16.5177 19.7091 15.8588C19.9896 14.6353 19.9896 12 19.9896 12C19.9896 12 20.0831 9.36473 19.7091 8.1412ZM10.4519 14.4471V9.55297L14.5662 12L10.4519 14.4471Z" fill="currentColor"/>
</svg>
