<svg width="24" height="24" viewBox="0 0 24 24" fill="none" xmlns="http://www.w3.org/2000/svg">
<path d="M20 4.86667V19.1333C20 19.6 19.6 20 19.1333 20H15.0667V13.8H17.1333L17.4667 11.4H15.0667V9.86667C15.0667 9.2 15.2667 8.66667 16.2667 8.66667H17.5333V6.53333C17.3333 6.53333 16.5333 6.46667 15.6667 6.46667C13.8 6.46667 12.5333 7.6 12.5333 9.66667V11.4667H10.4667V13.8667H12.5333V20H4.86667C4.4 20 4 19.6 4 19.1333V4.86667C4 4.4 4.4 4 4.86667 4H19.1333C19.6 4 20 4.4 20 4.86667Z" fill="currentColor"/>
</svg>
