<svg width="24" height="24" viewBox="0 0 24 24" fill="none" xmlns="http://www.w3.org/2000/svg">
<path fill-rule="evenodd" clip-rule="evenodd" d="M8.5 13.9334C7.89362 13.8975 7.36687 13.5081 7.17875 12.9446C6.70625 11.528 6.86812 11.7476 5.616 10.8779C5.22225 10.6049 5 10.1709 5 9.722C5 9.57325 5.02363 9.42362 5.07438 9.27662C5.55825 7.867 5.55913 8.13913 5.07438 6.72163C5.02363 6.57638 5 6.42588 5 6.278C5 5.82825 5.22225 5.39513 5.616 5.12125C6.86725 4.25325 6.70537 4.47287 7.17875 3.05362C7.37562 2.463 7.947 2.064 8.59187 2.064H8.59625C10.1406 2.06925 9.86587 2.15937 11.1241 1.27387C11.3849 1.091 11.692 1 12 1C12.308 1 12.6151 1.091 12.8759 1.27387C14.1254 2.15237 13.8559 2.06925 15.4038 2.064H15.4081C16.053 2.064 16.6244 2.463 16.8221 3.05362C17.2946 4.47025 17.1293 4.25063 18.3849 5.12125C18.7778 5.39425 19 5.82825 19 6.27713C19 6.425 18.9773 6.57638 18.9256 6.72163C18.4426 8.13213 18.4409 7.86087 18.9256 9.27662C18.9773 9.42362 19 9.57413 19 9.722C19 10.1709 18.7778 10.6049 18.3849 10.8779C17.1293 11.7494 17.2946 11.5298 16.8221 12.9446C16.6331 13.5073 16.1073 13.8975 15.5 13.9334V22L12.0367 19.375L8.5 22V13.9334ZM16.9998 8C16.9998 5.23938 14.7624 3.00025 12 3.00025C9.23938 3.00025 7.00025 5.23938 7.00025 8C7.00025 10.7606 9.23938 12.9997 12 12.9997C14.7624 12.9997 16.9998 10.7606 16.9998 8ZM12 4.5C10.0706 4.5 8.5 6.06975 8.5 8C8.5 9.93025 10.0706 11.5 12 11.5C13.9303 11.5 15.5 9.93025 15.5 8C15.5 6.06975 13.9303 4.5 12 4.5Z" fill="currentColor"/>
</svg>
