<svg width="24" height="24" viewBox="0 0 24 24" fill="none" xmlns="http://www.w3.org/2000/svg">
<path d="M19.9333 8.73333C19.8667 7.86667 19.7333 7.33333 19.5333 6.8C19.4 6.26667 19.1333 5.8 18.6667 5.33333C18.2 4.86667 17.8 4.6 17.2667 4.4C16.7333 4.2 16.2 4.06667 15.3333 4C14.4667 4 14.2 4 12 4C9.8 4 9.53333 4 8.73333 4.06667C7.86667 4.06667 7.26667 4.2 6.73333 4.4C6.26667 4.6 5.8 4.86667 5.33333 5.33333C4.86667 5.8 4.6 6.26667 4.4 6.73333C4.2 7.26667 4.06667 7.86667 4.06667 8.73333C4 9.53333 4 9.8 4 12C4 14.2 4 14.4667 4.06667 15.2667C4.13333 16.1333 4.26667 16.6667 4.46667 17.2C4.6 17.7333 4.86667 18.2 5.33333 18.6667C5.8 19.1333 6.2 19.4 6.73333 19.6C7.26667 19.8 7.8 19.9333 8.66667 20C9.53333 20 9.8 20 12 20C14.2 20 14.4667 20 15.2667 19.9333C16.1333 19.8667 16.6667 19.7333 17.2 19.5333C17.7333 19.3333 18.2 19.0667 18.6 18.6C19.0667 18.1333 19.3333 17.7333 19.5333 17.2C19.7333 16.6667 19.8667 16.1333 19.9333 15.2667C20 14.4667 20 14.2 20 12C20 9.8 20 9.53333 19.9333 8.73333ZM18.5333 15.2C18.4667 16 18.4 16.4 18.2667 16.6667C18.1333 17.0667 17.9333 17.3333 17.6667 17.6C17.4 17.8667 17.1333 18.0667 16.7333 18.2C16.4667 18.3333 16 18.4667 15.2667 18.4667C14.4 18.5333 14.2 18.5333 12.0667 18.5333C9.93333 18.5333 9.66667 18.5333 8.86667 18.4667C8.06667 18.4 7.66667 18.3333 7.4 18.2C7 18.0667 6.73333 17.8667 6.46667 17.6C6.2 17.3333 6 17.0667 5.86667 16.6667C5.73333 16.4 5.6 15.9333 5.6 15.2C5.53333 14.3333 5.53333 14.1333 5.53333 12C5.53333 9.86667 5.53333 9.6 5.6 8.8C5.53333 8 5.66667 7.53333 5.73333 7.26667C5.86667 6.86667 6.06667 6.6 6.33333 6.33333C6.6 6.06667 6.86667 5.86667 7.26667 5.73333C7.53333 5.66667 8 5.53333 8.8 5.46667C9.6 5.46667 9.86667 5.46667 12 5.46667C14.1333 5.46667 14.4 5.46667 15.2 5.53333C16 5.6 16.4 5.66667 16.6667 5.8C17.0667 5.93333 17.3333 6.13333 17.6 6.4C17.8667 6.66667 18.0667 6.93333 18.2 7.33333C18.3333 7.6 18.4667 8.06667 18.4667 8.8C18.5333 9.66667 18.5333 9.86667 18.5333 12C18.5333 14.1333 18.5333 14.4 18.5333 15.2ZM12 7.86667C9.73333 7.86667 7.86667 9.73333 7.86667 12C7.86667 14.2667 9.73333 16.1333 12 16.1333C14.2667 16.1333 16.1333 14.2667 16.1333 12C16.1333 9.73333 14.2667 7.86667 12 7.86667ZM12 14.6667C10.5333 14.6667 9.33333 13.4667 9.33333 12C9.33333 10.5333 10.5333 9.33333 12 9.33333C13.4667 9.33333 14.6667 10.5333 14.6667 12C14.6667 13.4667 13.4667 14.6667 12 14.6667ZM17.2 7.73333C17.2 8.26667 16.8 8.66667 16.2667 8.66667C15.7333 8.66667 15.3333 8.26667 15.3333 7.73333C15.3333 7.2 15.7333 6.8 16.2667 6.8C16.8 6.8 17.2 7.2 17.2 7.73333Z" fill="currentColor"/>
</svg>
