<svg width="24" height="24" viewBox="0 0 24 24" fill="none" xmlns="http://www.w3.org/2000/svg">
<path fill-rule="evenodd" clip-rule="evenodd" d="M19.5 19H16.1848V14.0784C16.1848 12.7902 15.6662 11.9108 14.5259 11.9108C13.6536 11.9108 13.1686 12.5043 12.9428 13.0762C12.8581 13.2815 12.8714 13.5675 12.8714 13.8534V19H9.58702C9.58702 19 9.62936 10.2819 9.58702 9.48947H12.8714V10.9821C13.0654 10.3295 14.1149 9.39803 15.7897 9.39803C17.8675 9.39803 19.5 10.766 19.5 13.7118V19ZM6.26564 8.29987H6.24447C5.18615 8.29987 4.5 7.57283 4.5 6.65127C4.5 5.71178 5.20643 5 6.28592 5C7.36453 5 8.02775 5.71 8.04892 6.64859C8.04892 7.57015 7.36453 8.29987 6.26564 8.29987ZM4.87834 9.48947H7.80197V19H4.87834V9.48947Z" fill="currentColor"/>
</svg>
