<svg width="24" height="24" viewBox="0 0 24 24" fill="none" xmlns="http://www.w3.org/2000/svg">
<path d="M12 3.5C7.30658 3.5 3.5 7.40209 3.5 12.2149C3.5 16.0654 5.93525 19.332 9.31329 20.4846C9.73758 20.5652 9.875 20.295 9.875 20.0655V18.4431C7.51058 18.9704 7.01829 17.4148 7.01829 17.4148C6.63154 16.4075 6.07408 16.1395 6.07408 16.1395C5.30271 15.5984 6.13287 15.6101 6.13287 15.6101C6.98642 15.6711 7.4355 16.5084 7.4355 16.5084C8.19342 17.8403 9.42379 17.4554 9.909 17.2325C9.98479 16.6696 10.2051 16.2847 10.4488 16.0676C8.56104 15.8461 6.57629 15.0988 6.57629 11.7603C6.57629 10.8082 6.9085 10.0311 7.45179 9.42104C7.36396 9.20099 7.07283 8.31425 7.53467 7.1145C7.53467 7.1145 8.24867 6.88065 9.87287 8.00777C10.5507 7.81459 11.2775 7.718 12 7.71437C12.7225 7.718 13.45 7.81459 14.1292 8.00777C15.752 6.88065 16.4646 7.1145 16.4646 7.1145C16.9272 8.31497 16.636 9.20171 16.5482 9.42104C17.0936 10.0311 17.423 10.8089 17.423 11.7603C17.423 15.1075 15.4347 15.8446 13.542 16.0603C13.8466 16.3305 14.125 16.8606 14.125 17.674V20.0655C14.125 20.2972 14.261 20.5695 14.6924 20.4839C18.0676 19.3299 20.5 16.064 20.5 12.2149C20.5 7.40209 16.6941 3.5 12 3.5Z" fill="currentColor"/>
</svg>
