<svg width="24" height="24" viewBox="0 0 24 24" fill="none" xmlns="http://www.w3.org/2000/svg">
<path d="M9.48533 14.0067H8V12.6667H9.50733C10.7593 12.6667 10.8427 14.0067 9.48533 14.0067ZM13.9907 12.222H16.0027C15.9247 11.0787 14.1827 10.904 13.9907 12.222ZM9.45467 10H8V11.3333H9.59267C10.708 11.3333 10.884 10 9.45467 10ZM20 7.33333V16.6667C20 18.5073 18.508 20 16.6667 20H7.33333C5.492 20 4 18.5073 4 16.6667V7.33333C4 5.49267 5.492 4 7.33333 4H16.6667C18.508 4 20 5.49267 20 7.33333ZM13.3333 9.33333H16.6667V8.66667H13.3333V9.33333ZM10.9653 11.7453C12.2367 11.096 12.19 8.712 9.75667 8.676H6.66667V15.328H9.54067C12.5553 15.328 12.504 12.3053 10.9653 11.7453ZM17.29 12.1467C17.1073 10.9713 16.2713 10.18 14.9013 10.18C13.5053 10.18 12.6667 11.0733 12.6667 12.8113C12.6667 14.5653 13.578 15.3333 14.944 15.3333C16.31 15.3333 17.0147 14.5767 17.2107 14H15.8033C15.3127 14.57 13.8747 14.3473 13.9587 13.098H17.332C17.3387 12.6753 17.324 12.372 17.29 12.1467Z" fill="currentColor"/>
</svg>
