<svg width="24" height="24" viewBox="0 0 24 24" fill="none" xmlns="http://www.w3.org/2000/svg">
<path d="M20 7.68201C20 7.34728 19.9333 6.87866 19.9333 6.67782C19.8667 6.3431 19.8 6.07531 19.6667 5.80753C19.5333 5.53975 19.3333 5.27197 19.0667 5.00418C18.8667 4.80335 18.6 4.60251 18.2667 4.40167C18 4.26778 17.7333 4.20084 17.4 4.13389C17.2 4.06695 16.7333 4.06695 16.3333 4.06695C16.2 4.06695 16 4.06695 15.9333 4.06695L8.06667 4C8 4 7.8 4 7.66667 4C7.26667 4 6.8 4.06695 6.6 4.06695C6.26667 4.13389 6 4.26778 5.73333 4.40167C5.46667 4.53556 5.2 4.7364 4.93333 4.93724C4.73333 5.20502 4.53333 5.4728 4.4 5.74059C4.26667 6.00837 4.13333 6.27615 4.06667 6.61088C4.06667 6.81172 4 7.28033 4 7.68201C4 7.8159 4 8.01674 4 8.08368V15.9833C4 16.0502 4 16.251 4 16.3849C4 16.7197 4.06667 17.1883 4.06667 17.3891C4.13333 17.7238 4.2 17.9916 4.33333 18.2594C4.46667 18.5272 4.66667 18.795 4.93333 19.0628C5.13333 19.2636 5.4 19.4644 5.73333 19.6653C6 19.7992 6.26667 19.8661 6.6 19.9331C6.8 20 7.26667 20 7.66667 20C7.8 20 8 20 8.06667 20H15.9333C16 20 16.2 20 16.3333 20C16.6667 20 17.1333 19.9331 17.3333 19.9331C17.6667 19.8661 17.9333 19.7992 18.2 19.6653C18.4667 19.5314 18.7333 19.3305 19 19.0628C19.2 18.8619 19.4 18.5941 19.6 18.2594C19.7333 17.9916 19.8 17.7238 19.8667 17.3891C19.9333 17.1883 19.9333 16.7197 19.9333 16.318C19.9333 16.1841 19.9333 15.9833 19.9333 15.9163V8.01674C20 8.01674 20 7.8159 20 7.68201ZM12.2 17.6569C11.2667 17.6569 10.2667 17.3891 9.46667 16.9874L6.4 17.7908L7.2 14.7782C6.66667 13.908 6.46667 12.9038 6.46667 11.8996C6.46667 8.75314 9.06667 6.14226 12.2 6.14226C13.7333 6.14226 15.2 6.74477 16.2667 7.8159C17.3333 8.88703 17.9333 10.3598 17.9333 11.8996C17.9333 15.046 15.3333 17.6569 12.2 17.6569ZM12.2 7.0795C9.6 7.0795 7.4 9.22176 7.4 11.8996C7.4 12.8368 7.66667 13.7071 8.13333 14.4435L8.26667 14.6444L7.8 16.3849L9.6 15.9163L9.8 16.0502C10.5333 16.5188 11.4 16.7197 12.2 16.7197C14.8 16.7197 17 14.5774 17 11.8996C17 10.6276 16.5333 9.42259 15.6 8.48536C14.6667 7.61506 13.4667 7.0795 12.2 7.0795ZM15 13.9079C14.8667 14.2427 14.3333 14.5774 14 14.5774C13.7333 14.6444 13.4667 14.6444 13.0667 14.5105C12.8667 14.4435 12.6 14.3766 12.2667 14.1757C10.8 13.5732 9.86667 12.1004 9.8 12.0335C9.73333 11.9665 9.2 11.2301 9.2 10.5607C9.2 9.82427 9.6 9.48954 9.73333 9.35565C9.86667 9.22176 10 9.15481 10.1333 9.15481C10.2 9.15481 10.3333 9.15481 10.4 9.15481C10.4667 9.15481 10.6 9.08787 10.7333 9.42259C10.8667 9.69038 11.1333 10.4268 11.2 10.4937C11.2667 10.5607 11.2667 10.6276 11.2 10.7615C11.1333 10.8285 11.1333 10.8954 11.0667 11.0293C11 11.0962 10.9333 11.2301 10.8667 11.2971C10.8 11.364 10.7333 11.431 10.8 11.5649C10.8667 11.6987 11.2 12.1674 11.6 12.569C12.1333 13.0377 12.6 13.2385 12.7333 13.3054C12.8667 13.3724 12.9333 13.3724 13.0667 13.2385C13.1333 13.1715 13.4 12.8368 13.5333 12.7029C13.6 12.569 13.7333 12.569 13.8667 12.636C14 12.7029 14.7333 13.0377 14.8667 13.1046C15 13.1715 15.1333 13.2385 15.1333 13.3054C15.1333 13.3054 15.1333 13.5732 15 13.9079Z" fill="currentColor"/>
</svg>
