<svg width="24" height="24" viewBox="0 0 24 24" fill="none" xmlns="http://www.w3.org/2000/svg">
<path d="M9.06122 18.5306C7.21088 18.5306 5.46939 17.9864 4 17.0612C4.27211 17.1156 4.54422 17.1156 4.7619 17.1156C6.28571 17.1156 7.7551 16.5714 8.84354 15.7007C7.37415 15.7007 6.17687 14.7211 5.7415 13.4149C5.95918 13.4694 6.12245 13.4694 6.34014 13.4694C6.66667 13.4694 6.93878 13.4149 7.21088 13.3605C5.68708 13.034 4.54422 11.7279 4.54422 10.1496V10.0952C5.08844 10.3129 5.57823 10.4762 6.12245 10.4762C5.2517 9.87752 4.65306 8.89793 4.65306 7.75507C4.65306 7.15643 4.81633 6.61222 5.08844 6.12242C6.72109 8.13603 9.17007 9.44215 11.8912 9.55099C11.8367 9.33331 11.7823 9.0612 11.7823 8.78909C11.7823 6.99317 13.2517 5.46936 15.102 5.46936C16.0272 5.46936 16.898 5.85031 17.4966 6.50337C18.2585 6.34011 18.966 6.068 19.5646 5.68705C19.2925 6.44895 18.8027 7.10201 18.0952 7.53739C18.7483 7.48297 19.4014 7.26528 20 6.99317C19.5646 7.64623 19.0204 8.24487 18.3673 8.68024C18.3673 8.84351 18.3673 8.95235 18.3673 9.11562C18.4218 13.5238 15.102 18.5306 9.06122 18.5306Z" fill="currentColor"/>
</svg>
