<svg width="24" height="24" viewBox="0 0 24 24" fill="none" xmlns="http://www.w3.org/2000/svg">
<path d="M20 7.73333C20 7.46667 20 7.13333 19.9333 6.86667C19.8667 6.53333 19.8 6.2 19.6 5.86667C19.4 5.53333 19.2 5.26667 18.9333 5C18.5333 4.6 18.0667 4.33333 17.4667 4.2C16.9333 4.06667 16.4 4 15.9333 4H8.06667C7.8 4 7.46667 4 7.2 4.06667C6.86667 4.13333 6.53333 4.13333 6.26667 4.26667C5.8 4.46667 5.33333 4.73333 5 5.06667C4.6 5.46667 4.33333 6 4.2 6.53333C4.06667 7.06667 4 7.53333 4 8.06667V15.9333C4 16.2667 4 16.6667 4.06667 17C4.13333 17.4 4.2 17.7333 4.4 18.0667C4.66667 18.5333 4.93333 18.9333 5.33333 19.2667C5.6 19.4667 5.93333 19.6667 6.26667 19.8C6.86667 19.9333 7.4 20 7.93333 20C8.26667 20 8.6 20 8.93333 20C11.4 20 13.8 20 16.2667 20C16.6 20 16.9333 19.9333 17.2 19.8667C17.8 19.7333 18.3333 19.4667 18.8 19.0667C19.3333 18.6 19.6667 18 19.8667 17.2667C20 16.8 20 16.3333 20 15.8667V15.8C20 15.8 20 7.86667 20 7.73333ZM17.9333 15.2C17.8667 15.3333 17.7333 15.4667 17.5333 15.5333C17.2667 15.6667 16.8667 15.7333 16.3333 15.8667C16.3333 15.9333 16.2667 16.0667 16.2667 16.1333C16.2667 16.2 16.2 16.3333 16.2 16.4C16.1333 16.5333 16.0667 16.6 15.8667 16.6C15.8 16.6 15.7333 16.6 15.6 16.5333C15.4 16.4667 15.2 16.4667 15 16.4667C14.8667 16.4667 14.7333 16.4667 14.5333 16.5333C14.2667 16.6 14 16.7333 13.6667 17C13.2667 17.3333 12.7333 17.6667 12 17.6667H11.9333H11.8667C11.1333 17.6667 10.6667 17.3333 10.2 17C9.93333 16.8 9.66667 16.6 9.33333 16.5333C9.2 16.5333 9 16.4667 8.86667 16.4667C8.6 16.4667 8.4 16.5333 8.26667 16.5333C8.13333 16.5333 8.06667 16.6 8 16.6C7.8 16.6 7.73333 16.4667 7.66667 16.3333C7.66667 16.2667 7.6 16.1333 7.6 16.0667C7.6 16 7.53333 15.8667 7.53333 15.8C7 15.7333 6.6 15.6 6.33333 15.4667C6.2 15.4667 6.06667 15.3333 6 15.2C6 15.1333 6 15.1333 6 15.0667C6 14.9333 6.06667 14.8 6.26667 14.8C6.6 14.7333 7 14.6 7.26667 14.4C7.53333 14.2 7.8 14 8 13.7333C8.4 13.2667 8.6 12.8667 8.6 12.8C8.66667 12.6 8.66667 12.4667 8.66667 12.4C8.6 12.2 8.26667 12.0667 8 12C7.93333 12 7.86667 11.9333 7.8 11.9333C7.6 11.8667 7.46667 11.8 7.33333 11.6667C7.13333 11.4667 7.13333 11.3333 7.13333 11.2667C7.13333 11.1333 7.26667 11 7.4 10.9333C7.53333 10.8667 7.66667 10.8 7.73333 10.8C7.8 10.8 7.86667 10.8 7.93333 10.8667C8.13333 10.9333 8.33333 11 8.46667 11C8.53333 11 8.6 11 8.66667 10.9333C8.66667 10.8667 8.66667 10.7333 8.66667 10.6667C8.66667 9.86667 8.6 8.86667 8.86667 8.26667C9.06667 7.86667 9.33333 7.53333 9.6 7.2C9.86667 7 10.2 6.8 10.5333 6.66667C11.1333 6.4 11.6667 6.4 11.9333 6.4H12.1333C12.4 6.4 12.9333 6.46667 13.5333 6.66667C13.8667 6.8 14.1333 7 14.4 7.26667C14.7333 7.53333 14.9333 7.93333 15.1333 8.33333C15.4 8.93333 15.3333 9.93333 15.2667 10.7333V10.8C15.2667 10.8667 15.2667 10.9333 15.2667 11C15.3333 11 15.3333 11 15.4 11.0667C15.5333 11.0667 15.7333 11 15.9333 10.9333C16 10.8667 16.1333 10.8667 16.2 10.8667C16.2667 10.8667 16.4 10.8667 16.4667 10.9333C16.7333 11 16.8667 11.2 16.8667 11.4C16.8667 11.4667 16.8667 11.6 16.7333 11.7333C16.6 11.8667 16.4667 11.9333 16.2667 12C16.2 12 16.1333 12.0667 16.0667 12.0667C15.8667 12.1333 15.5333 12.2667 15.4 12.4667C15.3333 12.6 15.4 12.7333 15.4667 12.8667C15.4667 12.9333 16.2 14.6 17.8 14.8667C17.9333 14.8667 18.0667 15 18.0667 15.1333C18 15.1333 18 15.1333 17.9333 15.2Z" fill="currentColor"/>
</svg>
