<?xml version="1.0" standalone="no"?>
<!DOCTYPE svg PUBLIC "-//W3C//DTD SVG 20010904//EN"
 "http://www.w3.org/TR/2001/REC-SVG-20010904/DTD/svg10.dtd">
<svg version="1.0" xmlns="http://www.w3.org/2000/svg"
 width="688.000000pt" height="688.000000pt" viewBox="0 0 688.000000 688.000000"
 preserveAspectRatio="xMidYMid meet">
<metadata>
Created by potrace 1.14, written by Peter Selinger 2001-2017
</metadata>
<g transform="translate(0.000000,688.000000) scale(0.100000,-0.100000)"
fill="#000000" stroke="none">
<path d="M5840 6629 c-26 -11 -387 -138 -405 -143 -28 -7 -62 -18 -80 -26 -11
-5 -76 -27 -145 -50 -69 -22 -132 -44 -140 -47 -8 -3 -18 -5 -22 -5 -7 2 -88
-102 -145 -185 -12 -18 -32 -46 -44 -62 l-21 -29 0 -2570 0 -2569 72 -114 c73
-114 107 -159 121 -159 4 0 55 -23 114 -50 59 -28 108 -50 110 -50 1 0 45 -20
96 -44 52 -24 185 -85 297 -136 218 -99 211 -97 327 -74 11 2 38 6 60 9 113
13 129 20 204 89 86 81 109 102 202 186 51 47 118 108 148 135 30 28 62 57 71
65 82 73 139 135 144 156 4 13 21 55 39 92 l33 67 -1 2350 -1 2350 -30 65
c-17 36 -36 80 -43 97 -7 18 -49 65 -93 105 -44 40 -95 87 -112 103 -18 17
-73 66 -121 110 -48 44 -102 93 -119 109 -17 15 -51 46 -76 69 -25 22 -61 55
-81 74 -19 18 -45 36 -57 38 -12 3 -32 7 -44 10 -13 3 -50 10 -82 16 -33 5
-62 12 -65 14 -17 10 -89 13 -111 4z m180 -300 c25 -23 65 -60 90 -83 61 -54
250 -227 270 -246 9 -8 61 -56 116 -106 l99 -91 0 -2341 -1 -2341 -39 -36
c-22 -20 -76 -69 -119 -108 -44 -40 -96 -88 -117 -107 -21 -19 -68 -63 -106
-96 -105 -95 -124 -113 -183 -169 l-56 -53 -109 50 c-61 27 -128 57 -150 68
-110 51 -217 100 -220 100 -3 0 -135 61 -235 108 -19 9 -37 17 -40 17 -3 0
-27 11 -53 25 -32 17 -46 31 -46 45 0 11 0 42 -1 68 -1 27 1 51 4 54 2 3 1 15
-4 28 -5 13 -6 26 -3 29 4 4 6 25 5 49 -4 97 -3 129 2 134 2 3 1 15 -4 28 -5
13 -6 26 -3 29 4 4 6 25 5 49 -4 97 -3 129 2 134 2 3 1 15 -4 28 -5 13 -6 26
-3 29 8 8 7 112 -1 125 -3 5 -2 20 3 33 5 12 5 32 1 44 -5 11 -5 27 0 34 4 7
4 25 0 40 -4 15 -4 33 0 40 4 7 4 26 0 41 -5 16 -6 29 -2 29 4 0 7 16 7 35 0
19 -3 35 -7 35 -4 0 -4 10 1 23 5 12 5 31 1 43 -5 11 -5 27 0 34 4 7 4 25 0
40 -4 15 -4 33 0 40 4 7 4 26 0 41 -5 16 -6 29 -2 29 4 0 7 16 7 35 0 19 -3
35 -7 35 -4 0 -4 10 1 23 5 12 5 31 1 43 -5 11 -5 27 0 34 4 7 4 25 0 40 -4
15 -4 33 0 40 4 7 4 26 0 41 -5 16 -6 29 -2 29 4 0 7 16 7 35 0 19 -3 35 -7
35 -4 0 -4 10 1 23 5 12 5 31 1 43 -5 11 -5 27 0 34 4 7 4 25 0 40 -4 15 -4
33 0 40 4 7 4 26 0 41 -5 16 -6 29 -2 29 4 0 7 16 7 35 0 19 -3 35 -7 35 -4 0
-4 10 1 23 5 12 5 31 1 43 -5 11 -5 27 0 34 4 7 4 25 0 40 -4 15 -4 33 0 40 4
7 4 26 0 41 -5 16 -6 29 -2 29 4 0 7 16 7 35 0 19 -3 35 -7 35 -4 0 -4 10 1
23 5 12 5 31 1 43 -5 11 -5 27 0 34 4 7 4 25 0 40 -4 15 -4 33 0 40 4 7 4 26
0 41 -5 16 -6 29 -2 29 4 0 7 16 7 35 0 19 -3 35 -7 35 -4 0 -4 10 1 23 5 12
5 31 1 43 -5 11 -5 27 0 34 4 7 4 25 0 40 -4 15 -4 33 0 40 4 7 4 26 0 41 -5
16 -6 29 -2 29 4 0 7 16 7 35 0 19 -3 35 -7 35 -4 0 -4 10 1 23 5 12 5 31 1
43 -5 11 -5 27 0 34 4 7 4 25 0 40 -4 15 -4 33 0 40 4 7 4 26 0 41 -5 16 -6
29 -2 29 4 0 7 16 7 35 0 19 -3 35 -7 35 -4 0 -4 10 1 23 5 12 5 31 1 43 -5
11 -5 27 0 34 4 7 4 25 0 40 -4 15 -4 33 0 40 4 7 4 26 0 41 -5 16 -6 29 -2
29 4 0 7 16 7 35 0 19 -3 35 -7 35 -4 0 -4 10 1 23 5 12 5 31 1 43 -5 11 -5
27 0 34 4 7 4 25 0 40 -4 15 -4 33 0 40 4 7 4 26 0 41 -5 16 -6 29 -2 29 4 0
7 16 7 35 0 19 -3 35 -7 35 -4 0 -4 10 1 23 5 12 5 31 1 43 -5 11 -5 27 0 34
4 7 4 25 0 40 -4 15 -4 33 0 40 4 7 4 26 0 41 -5 16 -6 29 -2 29 4 0 7 16 7
35 0 19 -3 35 -7 35 -4 0 -4 10 1 23 5 12 5 31 1 43 -5 11 -5 27 0 34 4 7 4
25 0 40 -4 15 -4 33 0 40 4 7 4 26 0 41 -5 16 -6 29 -2 29 4 0 7 16 7 35 0 19
-3 35 -7 35 -4 0 -4 10 1 23 5 12 5 31 1 43 -5 11 -5 27 0 34 4 7 4 25 0 40
-4 15 -4 33 0 40 4 7 4 26 0 41 -5 16 -6 29 -2 29 4 0 7 16 7 35 0 19 -3 35
-7 35 -4 0 -4 10 1 23 5 12 5 31 1 42 -4 11 -5 24 -2 29 3 5 5 23 6 39 1 25 7
32 31 39 17 5 39 14 50 19 11 5 54 20 95 33 164 54 634 217 638 221 14 13 41
1 82 -36z"/>
<path d="M3236 6623 c-2 -2 -61 -13 -99 -18 -30 -4 -106 -16 -122 -19 -20 -4
-45 -23 -136 -106 -51 -47 -102 -94 -115 -105 -91 -82 -172 -155 -204 -185
-20 -19 -65 -60 -99 -90 -35 -30 -77 -68 -95 -85 -29 -27 -155 -142 -261 -236
-22 -20 -67 -61 -100 -91 -33 -30 -116 -106 -185 -168 -69 -62 -141 -128 -160
-146 -19 -18 -47 -43 -61 -56 -15 -13 -44 -39 -65 -58 -22 -19 -81 -73 -133
-120 -52 -47 -106 -96 -121 -110 -15 -14 -49 -45 -76 -69 -27 -24 -87 -78
-133 -120 -94 -85 -107 -97 -217 -196 -42 -38 -89 -81 -104 -95 -15 -14 -65
-59 -110 -100 -87 -79 -90 -81 -210 -190 -41 -37 -87 -79 -101 -92 -248 -223
-237 -209 -287 -325 l-42 -98 0 -291 0 -292 26 -58 c63 -143 73 -160 123 -203
28 -24 69 -60 90 -80 20 -20 63 -58 94 -86 32 -27 74 -66 95 -85 20 -19 77
-71 126 -115 49 -44 101 -91 116 -105 15 -14 62 -56 105 -95 42 -38 90 -81
105 -95 15 -14 63 -57 106 -96 110 -99 119 -108 224 -204 51 -47 102 -93 114
-103 12 -10 59 -53 105 -95 46 -42 93 -85 105 -95 11 -10 42 -37 67 -60 25
-23 78 -71 118 -107 40 -36 89 -81 110 -100 21 -19 76 -69 121 -110 97 -87
184 -167 216 -195 12 -11 57 -51 100 -90 42 -38 87 -79 99 -90 11 -11 65 -60
120 -110 55 -49 120 -109 145 -131 25 -23 57 -52 71 -65 15 -13 64 -58 109
-99 46 -41 93 -83 104 -93 12 -10 36 -31 54 -48 19 -16 40 -30 48 -30 8 -1 17
-2 22 -3 12 -3 75 -16 102 -21 14 -2 46 -9 71 -15 58 -14 60 -14 274 59 99 34
268 91 375 127 107 36 205 70 218 75 53 22 71 33 76 45 3 7 42 64 87 126 l83
113 1 2575 c0 1570 -3 2584 -9 2598 -5 12 -13 22 -18 22 -4 0 -8 4 -8 9 0 21
-141 220 -161 226 -18 6 -101 43 -224 100 -45 21 -142 65 -320 145 -88 40
-188 85 -222 101 -50 23 -114 34 -127 22z m-13 -268 c19 -8 79 -35 132 -60 53
-25 98 -45 100 -45 1 0 46 -20 98 -45 53 -25 98 -45 101 -45 2 0 42 -17 88
-39 107 -50 224 -104 266 -122 35 -15 34 -9 34 -156 0 -45 -3 -87 -7 -92 -3
-6 -3 -11 2 -11 9 0 9 -281 0 -305 -4 -8 -3 -15 1 -15 5 0 7 -429 2 -540 0
-14 0 -109 1 -211 1 -103 -2 -192 -5 -198 -4 -6 -4 -11 1 -11 9 0 9 -281 0
-305 -4 -8 -3 -15 1 -15 5 0 7 -429 2 -540 0 -14 0 -109 1 -211 1 -103 -2
-192 -5 -198 -4 -6 -4 -11 1 -11 9 0 9 -281 0 -305 -4 -8 -3 -15 1 -15 5 0 7
-429 2 -540 0 -14 0 -109 1 -211 1 -103 -2 -192 -5 -198 -4 -6 -4 -11 1 -11 6
0 9 -420 3 -540 0 -14 0 -109 1 -211 1 -103 -2 -192 -5 -198 -4 -6 -4 -11 1
-11 4 0 7 -23 6 -51 -1 -48 -12 -72 -33 -75 -6 -1 -12 -3 -15 -4 -3 -1 -8 -3
-12 -4 -5 -1 -46 -15 -93 -31 -47 -16 -87 -29 -90 -30 -3 0 -9 -3 -15 -7 -5
-3 -30 -11 -54 -18 -24 -6 -55 -16 -70 -22 -14 -6 -30 -12 -36 -14 -5 -1 -108
-36 -227 -76 l-217 -74 -44 40 c-87 80 -210 191 -229 208 -21 18 -186 168
-229 208 -15 14 -56 51 -92 83 l-65 57 0 2323 0 2322 27 25 c15 14 62 57 105
95 43 39 90 81 105 95 15 14 69 63 121 110 52 47 115 104 140 127 134 123 156
142 161 143 4 0 22 -7 42 -15z"/>
</g>
</svg>
